# xmcd CD database file
#
# Track frame offsets:
#	150
#	24512
#	63437
#	99337
#	124725
#	145875
#	178612
#	197012
#	218812
#	251000
#
# Disc length: 3759 seconds
#
# Revision: 1
# Processed by: cddbd v1.5PL3 Copyright (c) Steve Scherf et al.
# Submitted via: CDex 1.51
#
DISCID=8c0ead0a
DTITLE=Don Friedman Trio - Red Sky Waltz
DYEAR=1996
DGENRE=Jazz
TTITLE0=SASFT (Straight And Strive For Tone)
TTITLE1=Beautiful Love
TTITLE2=Warm Valley
TTITLE3=Oh Yeah!
TTITLE4=Red Sky Waltz
TTITLE5=Isfahan
TTITLE6=Time Remembered
TTITLE7=Match Point
TTITLE8=Never Let Me Go
TTITLE9=You Go To My Head
EXTD=YEAR: 1996
EXTT0=
EXTT1=
EXTT2=
EXTT3=
EXTT4=
EXTT5=
EXTT6=
EXTT7=
EXTT8=
EXTT9=
PLAYORDER=
